<?xml version="1.0" encoding="utf-8"?>
<!-- Generator: Adobe Illustrator 19.2.0, SVG Export Plug-In . SVG Version: 6.00 Build 0)  -->
<svg version="1.1" id="Layer_1" xmlns="http://www.w3.org/2000/svg" xmlns:xlink="http://www.w3.org/1999/xlink" x="0px" y="0px"
	 viewBox="0 0 205.6 33.7" style="enable-background:new 0 0 205.6 33.7;" xml:space="preserve">
<style type="text/css">
	.st0{fill:#FFFFFF;}
	.st1{fill:url(#SVGID_1_);}
</style>
<g>
	<path class="st0" d="M43.9,26.4l-3.8-6.8h-3v6.8h-4.1V7.3h9c4,0,6.4,2.6,6.4,6.2c0,3.4-2.1,5.2-4.2,5.7l4.3,7.3H43.9z M44.3,13.4
		c0-1.6-1.2-2.6-2.9-2.6h-4.3V16h4.3C43.1,16,44.3,15,44.3,13.4z"/>
	<path class="st0" d="M66.2,26.4L65,23.2h-8.2l-1.2,3.2H51l7.4-19.2h5.1l7.4,19.2H66.2z M60.9,11.3l-3,8.2h6L60.9,11.3z"/>
	<path class="st0" d="M74.1,26.4V7.3h4.1v19.2H74.1z"/>
	<path class="st0" d="M96.6,26.4l-9.1-12.5v12.5h-4.1V7.3h4.2l8.9,12v-12h4.1v19.2H96.6z"/>
	<path class="st0" d="M104.5,23.7l2.2-3.1c1.3,1.4,3.4,2.6,6.1,2.6c2.2,0,3.3-1,3.3-2.1c0-3.4-11-1.1-11-8.3c0-3.2,2.8-5.8,7.3-5.8
		c3,0,5.6,0.9,7.5,2.7l-2.3,3c-1.6-1.4-3.6-2.1-5.6-2.1c-1.8,0-2.7,0.8-2.7,1.9c0,3,11,1,11,8.2c0,3.5-2.5,6.1-7.7,6.1
		C108.9,26.8,106.3,25.5,104.5,23.7z"/>
	<path class="st0" d="M128.5,26.4V10.9h-5.6V7.3h15.3v3.6h-5.6v15.6H128.5z"/>
	<path class="st0" d="M140.6,16.9c0-5.8,4.2-9.9,10-9.9c5.8,0,10,4.1,10,9.9c0,5.8-4.2,9.9-10,9.9C144.8,26.8,140.6,22.6,140.6,16.9
		z M156.4,16.9c0-3.6-2.3-6.3-5.8-6.3s-5.8,2.7-5.8,6.3c0,3.6,2.3,6.3,5.8,6.3S156.4,20.4,156.4,16.9z"/>
	<path class="st0" d="M175.8,26.4l-3.8-6.8h-3v6.8h-4.1V7.3h9c4,0,6.4,2.6,6.4,6.2c0,3.4-2.1,5.2-4.2,5.7l4.3,7.3H175.8z
		 M176.2,13.4c0-1.6-1.2-2.6-2.9-2.6H169V16h4.3C174.9,16,176.2,15,176.2,13.4z"/>
	<path class="st0" d="M201.5,26.4V13l-5.4,13.4h-1.8L188.9,13v13.4h-4.1V7.3h5.7l4.7,11.6l4.7-11.6h5.7v19.2H201.5z"/>
</g>
<g>
	<linearGradient id="SVGID_1_" gradientUnits="userSpaceOnUse" x1="0" y1="16.8591" x2="28.1069" y2="16.8591">
		<stop  offset="0" style="stop-color:#19C2C9"/>
		<stop  offset="0.9969" style="stop-color:#A2F7FA"/>
	</linearGradient>
	<path class="st1" d="M0,33.7V0h17.7c6.4,0,9.7,4.1,9.7,8.6c0,4.2-2.6,7.1-5.8,7.7c3.6,0.6,6.5,4,6.5,8.3c0,5.1-3.4,9.1-9.8,9.1H0z
		 M20.1,9.9c0-2.1-1.5-3.7-3.9-3.7h-9v7.3h9C18.6,13.5,20.1,12,20.1,9.9z M20.8,23.6c0-2.1-1.5-3.9-4.3-3.9H7.2v7.8h9.3
		C19.2,27.5,20.8,26,20.8,23.6z"/>
</g>
</svg>
